<svg xmlns="http://www.w3.org/2000/svg" viewBox="0 0 400 400" role="img">
  <rect width="400" height="400" fill="#1b1b1d"/>
  <g stroke="#3a3a40" stroke-width="2">
    <line x1="-20" y1="0" x2="20" y2="400"/>
    <line x1="-2" y1="0" x2="38" y2="400"/>
    <line x1="16" y1="0" x2="56" y2="400"/>
    <line x1="34" y1="0" x2="74" y2="400"/>
    <line x1="52" y1="0" x2="92" y2="400"/>
    <line x1="70" y1="0" x2="110" y2="400"/>
    <line x1="88" y1="0" x2="128" y2="400"/>
    <line x1="106" y1="0" x2="146" y2="400"/>
    <line x1="124" y1="0" x2="164" y2="400"/>
    <line x1="142" y1="0" x2="182" y2="400"/>
    <line x1="160" y1="0" x2="200" y2="400"/>
    <line x1="178" y1="0" x2="218" y2="400"/>
    <line x1="196" y1="0" x2="236" y2="400"/>
    <line x1="214" y1="0" x2="254" y2="400"/>
    <line x1="232" y1="0" x2="272" y2="400"/>
    <line x1="250" y1="0" x2="290" y2="400"/>
    <line x1="268" y1="0" x2="308" y2="400"/>
    <line x1="286" y1="0" x2="326" y2="400"/>
    <line x1="304" y1="0" x2="344" y2="400"/>
    <line x1="322" y1="0" x2="362" y2="400"/>
    <line x1="340" y1="0" x2="380" y2="400"/>
    <line x1="358" y1="0" x2="398" y2="400"/>
    <line x1="376" y1="0" x2="416" y2="400"/>
    <line x1="394" y1="0" x2="434" y2="400"/>
    <line x1="412" y1="0" x2="452" y2="400"/>
  </g>
  <rect x="0" y="0" width="400" height="400" fill="none" stroke="#0e0e10" stroke-width="14"/>
</svg>
