<svg xmlns="http://www.w3.org/2000/svg" viewBox="0 0 400 400" role="img">
  <rect width="400" height="400" fill="#f0ece4"/>

  <!-- mangas -->
  <path d="M130 132 L88 155 L98 322 L132 308 Z" fill="#d8d4cb"/>
  <path d="M270 132 L312 155 L302 322 L268 308 Z" fill="#d8d4cb"/>

  <!-- cuerpo del saco -->
  <path d="M132 130 L268 130 L290 338 L110 338 Z" fill="#f5f3ee"/>

  <!-- escote en V (camisa) -->
  <path d="M172 130 L228 130 L200 258 Z" fill="#fbf8f3"/>

  <!-- bordes de solapa -->
  <path d="M172 130 L200 214 L201 214 L173 130 Z" fill="#d8d4cb"/>
  <path d="M228 130 L200 214 L199 214 L227 130 Z" fill="#d8d4cb"/>

  

  <!-- botones -->
  <circle cx="207" cy="268" r="6" fill="#d8d4cb"/>
  <circle cx="207" cy="298" r="6" fill="#d8d4cb"/>

  <g>
    <path d="M 168 138 L 196 128 L 196 156 L 168 150 Z" fill="#15151a"/>
    <path d="M 232 138 L 204 128 L 204 156 L 232 150 Z" fill="#15151a"/>
    <rect x="193" y="132" width="14" height="18" fill="#15151a"/>
  </g>
</svg>
