<svg width="500" height="500" viewBox="0 0 500 500" fill="none" xmlns="http://www.w3.org/2000/svg">
<path d="M61 16H439V367C439 429.4 376 468.4 250 484C124 468.4 61 429.4 61 367V16Z" fill="#0C1B2E" stroke="white" stroke-width="2.5"/>
<path d="M76.12 30.04H423.88V362.32C423.88 418.48 365.92 454.36 250 469.96C134.08 454.36 76.12 418.48 76.12 362.32V30.04Z" stroke="white"/>
<path d="M116.451 52.064C111.057 52.064 107.181 55.5773 104.823 62.604C104.778 62.74 104.642 62.808 104.415 62.808C104.189 62.7627 104.075 62.672 104.075 62.536C104.257 60.7227 104.461 58.388 104.687 55.532C104.914 52.6307 105.027 50.4547 105.027 49.004C105.027 48.7773 105.141 48.664 105.367 48.664C105.639 48.664 105.775 48.7773 105.775 49.004C105.775 50.0013 107.067 50.5 109.651 50.5C113.55 50.636 118.106 50.704 123.319 50.704C125.994 50.704 128.827 50.6587 131.819 50.568L136.443 50.5C138.166 50.5 139.413 50.3867 140.183 50.16C140.999 49.9333 141.521 49.48 141.747 48.8C141.793 48.6187 141.929 48.528 142.155 48.528C142.427 48.528 142.563 48.6187 142.563 48.8C142.427 50.16 142.269 52.336 142.087 55.328C141.951 58.32 141.883 60.7227 141.883 62.536C141.883 62.672 141.77 62.74 141.543 62.74C141.317 62.74 141.181 62.672 141.135 62.536C140.455 59.0453 139.186 56.4387 137.327 54.716C135.469 52.948 133.179 52.064 130.459 52.064C129.145 52.064 128.261 52.3587 127.807 52.948C127.399 53.492 127.195 54.5573 127.195 56.144V87.492C127.195 88.8973 127.331 89.9173 127.603 90.552C127.875 91.1867 128.397 91.6173 129.167 91.844C129.938 92.0707 131.162 92.184 132.839 92.184C132.975 92.184 133.043 92.32 133.043 92.592C133.043 92.864 132.975 93 132.839 93C131.207 93 129.915 92.9773 128.963 92.932L123.319 92.864L117.811 92.932C116.859 92.9773 115.545 93 113.867 93C113.731 93 113.663 92.864 113.663 92.592C113.663 92.32 113.731 92.184 113.867 92.184C115.499 92.184 116.701 92.0707 117.471 91.844C118.287 91.6173 118.831 91.1867 119.103 90.552C119.421 89.872 119.579 88.852 119.579 87.492V56.008C119.579 54.4667 119.375 53.424 118.967 52.88C118.559 52.336 117.721 52.064 116.451 52.064ZM172.308 66.82C172.308 65.46 172.195 64.4627 171.968 63.828C171.741 63.148 171.333 62.672 170.744 62.4C170.155 62.128 169.225 61.992 167.956 61.992C167.82 61.992 167.752 61.856 167.752 61.584C167.752 61.312 167.82 61.176 167.956 61.176L171.22 61.244C173.033 61.3347 174.552 61.38 175.776 61.38C176.864 61.38 178.36 61.3347 180.264 61.244L183.528 61.176C183.664 61.176 183.732 61.312 183.732 61.584C183.732 61.856 183.664 61.992 183.528 61.992C182.259 61.992 181.307 62.128 180.672 62.4C180.083 62.6267 179.675 63.0573 179.448 63.692C179.221 64.3267 179.108 65.324 179.108 66.684V87.492C179.108 88.852 179.221 89.872 179.448 90.552C179.675 91.1867 180.083 91.6173 180.672 91.844C181.261 92.0707 182.213 92.184 183.528 92.184C183.664 92.184 183.732 92.32 183.732 92.592C183.732 92.864 183.664 93 183.528 93C182.123 93 181.035 92.9773 180.264 92.932L175.776 92.864L171.22 92.932C170.449 92.9773 169.361 93 167.956 93C167.82 93 167.752 92.864 167.752 92.592C167.752 92.32 167.82 92.184 167.956 92.184C169.225 92.184 170.155 92.0707 170.744 91.844C171.333 91.6173 171.741 91.1867 171.968 90.552C172.195 89.872 172.308 88.852 172.308 87.492V66.82ZM152.384 76.068H175.436V77.836H152.384V76.068ZM149.188 66.684C149.188 65.324 149.075 64.3267 148.848 63.692C148.621 63.0573 148.191 62.6267 147.556 62.4C146.967 62.128 146.06 61.992 144.836 61.992C144.7 61.992 144.632 61.856 144.632 61.584C144.632 61.312 144.7 61.176 144.836 61.176L148.1 61.244C149.913 61.3347 151.387 61.38 152.52 61.38C153.744 61.38 155.263 61.3347 157.076 61.244L160.34 61.176C160.431 61.176 160.476 61.312 160.476 61.584C160.476 61.856 160.431 61.992 160.34 61.992C158.527 61.992 157.325 62.3093 156.736 62.944C156.192 63.5787 155.92 64.8707 155.92 66.82V87.492C155.92 88.852 156.033 89.8493 156.26 90.484C156.487 91.1187 156.895 91.572 157.484 91.844C158.119 92.0707 159.071 92.184 160.34 92.184C160.431 92.184 160.476 92.32 160.476 92.592C160.476 92.864 160.431 93 160.34 93C158.935 93 157.847 92.9773 157.076 92.932L152.52 92.864L148.1 92.932C147.284 92.9773 146.151 93 144.7 93C144.609 93 144.564 92.864 144.564 92.592C144.564 92.32 144.609 92.184 144.7 92.184C146.015 92.184 146.967 92.0707 147.556 91.844C148.191 91.6173 148.621 91.1867 148.848 90.552C149.075 89.872 149.188 88.852 149.188 87.492V66.684ZM199.361 87.492C199.361 88.852 199.474 89.872 199.701 90.552C199.928 91.1867 200.336 91.6173 200.925 91.844C201.514 92.0707 202.466 92.184 203.781 92.184C203.872 92.184 203.917 92.32 203.917 92.592C203.917 92.864 203.872 93 203.781 93C202.376 93 201.288 92.9773 200.517 92.932L195.893 92.864L191.473 92.932C190.657 92.9773 189.524 93 188.073 93C187.982 93 187.937 92.864 187.937 92.592C187.937 92.32 187.982 92.184 188.073 92.184C189.388 92.184 190.34 92.0707 190.929 91.844C191.564 91.6173 191.994 91.1867 192.221 90.552C192.448 89.872 192.561 88.852 192.561 87.492V66.684C192.561 65.324 192.448 64.3267 192.221 63.692C191.994 63.0573 191.564 62.6267 190.929 62.4C190.34 62.128 189.388 61.992 188.073 61.992C187.982 61.992 187.937 61.856 187.937 61.584C187.937 61.312 187.982 61.176 188.073 61.176L191.473 61.244C193.286 61.3347 194.76 61.38 195.893 61.38C197.117 61.38 198.681 61.3347 200.585 61.244L203.781 61.176C203.872 61.176 203.917 61.312 203.917 61.584C203.917 61.856 203.872 61.992 203.781 61.992C202.512 61.992 201.56 62.128 200.925 62.4C200.336 62.672 199.928 63.148 199.701 63.828C199.474 64.4627 199.361 65.46 199.361 66.82V87.492ZM215.935 66.208C215.935 67.4773 216.275 68.588 216.955 69.54C217.68 70.4467 218.542 71.24 219.539 71.92C220.582 72.5547 221.987 73.3253 223.755 74.232C225.795 75.32 227.382 76.2493 228.515 77.02C229.694 77.7453 230.691 78.6973 231.507 79.876C232.368 81.0547 232.799 82.46 232.799 84.092C232.799 85.9053 232.255 87.56 231.167 89.056C230.124 90.5067 228.674 91.6627 226.815 92.524C224.956 93.3853 222.871 93.816 220.559 93.816C218.474 93.816 216.434 93.544 214.439 93C212.49 92.5013 211.13 91.9347 210.359 91.3C209.996 91.0733 209.815 90.5973 209.815 89.872L209.475 82.188C209.475 82.0067 209.588 81.8933 209.815 81.848C210.042 81.8027 210.2 81.8707 210.291 82.052C212.014 85.044 213.759 87.492 215.527 89.396C217.295 91.3 219.312 92.252 221.579 92.252C222.939 92.252 224.072 91.844 224.979 91.028C225.886 90.212 226.339 88.988 226.339 87.356C226.339 85.9053 225.954 84.636 225.183 83.548C224.458 82.46 223.551 81.5533 222.463 80.828C221.375 80.0573 219.924 79.1733 218.111 78.176C215.436 76.7253 213.396 75.3653 211.991 74.096C210.586 72.7813 209.883 71.0813 209.883 68.996C209.883 66.3667 211.039 64.2813 213.351 62.74C215.663 61.1533 218.451 60.36 221.715 60.36C223.166 60.36 224.684 60.5187 226.271 60.836C227.858 61.1533 229.127 61.516 230.079 61.924C230.487 62.06 230.759 62.2413 230.895 62.468C231.031 62.6493 231.099 62.9213 231.099 63.284V69.744C231.099 69.88 230.986 69.9933 230.759 70.084C230.532 70.1293 230.374 70.084 230.283 69.948C229.422 68.1347 228.22 66.344 226.679 64.576C225.138 62.808 223.098 61.924 220.559 61.924C219.018 61.924 217.862 62.332 217.091 63.148C216.32 63.9187 215.935 64.9387 215.935 66.208ZM262.668 57.368C262.668 59 263.076 60.4507 263.892 61.72C264.753 62.9893 265.796 64.1 267.02 65.052C268.244 66.004 269.899 67.16 271.984 68.52C274.251 69.9707 276.064 71.24 277.424 72.328C278.784 73.416 279.94 74.7533 280.892 76.34C281.844 77.8813 282.32 79.672 282.32 81.712C282.32 84.0693 281.685 86.1773 280.416 88.036C279.147 89.8493 277.379 91.2773 275.112 92.32C272.891 93.3173 270.397 93.816 267.632 93.816C265.637 93.816 263.507 93.544 261.24 93C259.019 92.4107 257.523 91.776 256.752 91.096C256.525 90.9147 256.344 90.756 256.208 90.62C256.117 90.4387 256.072 90.1667 256.072 89.804L255.868 78.992V78.924C255.868 78.7427 255.981 78.652 256.208 78.652C256.435 78.6067 256.571 78.6747 256.616 78.856C257.976 81.6213 259.155 83.8653 260.152 85.588C261.195 87.3107 262.487 88.8293 264.028 90.144C265.615 91.4587 267.405 92.116 269.4 92.116C271.213 92.116 272.709 91.64 273.888 90.688C275.067 89.6907 275.656 88.0133 275.656 85.656C275.656 83.6613 275.203 81.916 274.296 80.42C273.435 78.924 272.369 77.6547 271.1 76.612C269.831 75.5693 268.085 74.3227 265.864 72.872C263.688 71.4667 261.988 70.2653 260.764 69.268C259.585 68.2707 258.565 67.0693 257.704 65.664C256.843 64.2587 256.412 62.604 256.412 60.7C256.412 58.2973 257.092 56.28 258.452 54.648C259.857 52.9707 261.648 51.7467 263.824 50.976C266 50.16 268.289 49.752 270.692 49.752C272.279 49.752 273.888 49.9107 275.52 50.228C277.152 50.5 278.467 50.84 279.464 51.248C279.872 51.4293 280.144 51.6333 280.28 51.86C280.416 52.0413 280.484 52.2907 280.484 52.608V62.604C280.484 62.74 280.371 62.8533 280.144 62.944C279.917 62.9893 279.781 62.944 279.736 62.808L279.192 61.516C278.059 58.66 276.721 56.2347 275.18 54.24C273.684 52.2453 271.576 51.248 268.856 51.248C267.043 51.248 265.547 51.7693 264.368 52.812C263.235 53.8547 262.668 55.3733 262.668 57.368ZM314.052 66.82C314.052 65.46 313.961 64.4627 313.78 63.828C313.644 63.148 313.327 62.672 312.828 62.4C312.375 62.128 311.649 61.992 310.652 61.992C310.516 61.992 310.448 61.856 310.448 61.584C310.448 61.312 310.516 61.176 310.652 61.176L313.78 61.244C315.503 61.3347 316.817 61.38 317.724 61.38C318.54 61.38 319.764 61.3347 321.396 61.244L324.456 61.176C324.592 61.176 324.66 61.312 324.66 61.584C324.66 61.856 324.592 61.992 324.456 61.992C323.413 61.992 322.643 62.128 322.144 62.4C321.645 62.6267 321.305 63.0573 321.124 63.692C320.943 64.3267 320.852 65.324 320.852 66.684V87.492C320.852 88.852 320.943 89.872 321.124 90.552C321.305 91.1867 321.623 91.6173 322.076 91.844C322.575 92.0707 323.323 92.184 324.32 92.184C324.456 92.184 324.524 92.32 324.524 92.592C324.524 92.864 324.456 93 324.32 93L319.9 92.932L315.344 93C314.8 93 314.437 92.932 314.256 92.796C314.12 92.66 314.052 92.2973 314.052 91.708V66.82ZM316.636 84.5C314.596 87.7187 312.352 90.076 309.904 91.572C307.501 93.068 304.849 93.816 301.948 93.816C298.82 93.816 296.191 92.9773 294.06 91.3C291.929 89.6227 290.864 87.0387 290.864 83.548V66.684C290.864 65.324 290.796 64.3267 290.66 63.692C290.524 63.0573 290.275 62.6267 289.912 62.4C289.549 62.128 288.983 61.992 288.212 61.992C288.121 61.992 288.076 61.856 288.076 61.584C288.076 61.312 288.121 61.176 288.212 61.176L290.864 61.244C292.315 61.3347 293.493 61.38 294.4 61.38C295.488 61.38 296.848 61.3347 298.48 61.244L301.2 61.176C301.291 61.176 301.336 61.312 301.336 61.584C301.336 61.856 301.291 61.992 301.2 61.992C300.157 61.992 299.387 62.128 298.888 62.4C298.389 62.672 298.049 63.148 297.868 63.828C297.687 64.4627 297.596 65.46 297.596 66.82V81.916C297.596 85.3613 298.231 87.832 299.5 89.328C300.815 90.824 302.537 91.572 304.668 91.572C308.884 91.572 312.488 88.8747 315.48 83.48L316.636 84.5ZM340.275 87.492C340.275 88.852 340.388 89.872 340.615 90.552C340.842 91.1867 341.25 91.6173 341.839 91.844C342.428 92.0707 343.38 92.184 344.695 92.184C344.786 92.184 344.831 92.32 344.831 92.592C344.831 92.864 344.786 93 344.695 93C343.29 93 342.202 92.9773 341.431 92.932L336.807 92.864L332.387 92.932C331.571 92.9773 330.438 93 328.987 93C328.896 93 328.851 92.864 328.851 92.592C328.851 92.32 328.896 92.184 328.987 92.184C330.302 92.184 331.254 92.0707 331.843 91.844C332.478 91.6173 332.908 91.1867 333.135 90.552C333.362 89.872 333.475 88.852 333.475 87.492V66.684C333.475 65.324 333.362 64.3267 333.135 63.692C332.908 63.0573 332.478 62.6267 331.843 62.4C331.254 62.128 330.302 61.992 328.987 61.992C328.896 61.992 328.851 61.856 328.851 61.584C328.851 61.312 328.896 61.176 328.987 61.176L332.387 61.244C334.2 61.3347 335.674 61.38 336.807 61.38C338.031 61.38 339.595 61.3347 341.499 61.244L344.695 61.176C344.786 61.176 344.831 61.312 344.831 61.584C344.831 61.856 344.786 61.992 344.695 61.992C343.426 61.992 342.474 62.128 341.839 62.4C341.25 62.672 340.842 63.148 340.615 63.828C340.388 64.4627 340.275 65.46 340.275 66.82V87.492ZM362.017 93.816C359.297 93.816 357.008 93.0907 355.149 91.64C353.29 90.1893 352.361 87.7867 352.361 84.432V66.616C352.361 65.392 352.089 64.576 351.545 64.168C351.046 63.76 350.094 63.556 348.689 63.556C348.553 63.556 348.485 63.352 348.485 62.944C348.485 62.536 348.553 62.332 348.689 62.332C351.001 62.332 353.018 61.8333 354.741 60.836C356.464 59.8387 357.574 58.524 358.073 56.892C358.164 56.756 358.3 56.688 358.481 56.688C358.662 56.688 358.821 56.7333 358.957 56.824C359.093 56.8693 359.161 56.9373 359.161 57.028V82.868C359.161 88.2627 361.156 90.96 365.145 90.96C367.593 90.96 369.724 90.348 371.537 89.124L371.673 89.056C371.854 89.056 371.968 89.1467 372.013 89.328C372.104 89.5093 372.081 89.6453 371.945 89.736C370.086 91.232 368.409 92.2973 366.913 92.932C365.462 93.5213 363.83 93.816 362.017 93.816ZM369.905 64.916C366.822 64.1907 362.448 63.828 356.781 63.828V62.06C360.226 62.06 364.669 61.8333 370.109 61.38C370.245 61.38 370.358 61.5387 370.449 61.856C370.54 62.1733 370.585 62.5587 370.585 63.012C370.585 63.4653 370.494 63.9187 370.313 64.372C370.177 64.78 370.041 64.9613 369.905 64.916ZM382.681 66.208C382.681 67.4773 383.021 68.588 383.701 69.54C384.426 70.4467 385.288 71.24 386.285 71.92C387.328 72.5547 388.733 73.3253 390.501 74.232C392.541 75.32 394.128 76.2493 395.261 77.02C396.44 77.7453 397.437 78.6973 398.253 79.876C399.114 81.0547 399.545 82.46 399.545 84.092C399.545 85.9053 399.001 87.56 397.913 89.056C396.87 90.5067 395.42 91.6627 393.561 92.524C391.702 93.3853 389.617 93.816 387.305 93.816C385.22 93.816 383.18 93.544 381.185 93C379.236 92.5013 377.876 91.9347 377.105 91.3C376.742 91.0733 376.561 90.5973 376.561 89.872L376.221 82.188C376.221 82.0067 376.334 81.8933 376.561 81.848C376.788 81.8027 376.946 81.8707 377.037 82.052C378.76 85.044 380.505 87.492 382.273 89.396C384.041 91.3 386.058 92.252 388.325 92.252C389.685 92.252 390.818 91.844 391.725 91.028C392.632 90.212 393.085 88.988 393.085 87.356C393.085 85.9053 392.7 84.636 391.929 83.548C391.204 82.46 390.297 81.5533 389.209 80.828C388.121 80.0573 386.67 79.1733 384.857 78.176C382.182 76.7253 380.142 75.3653 378.737 74.096C377.332 72.7813 376.629 71.0813 376.629 68.996C376.629 66.3667 377.785 64.2813 380.097 62.74C382.409 61.1533 385.197 60.36 388.461 60.36C389.912 60.36 391.43 60.5187 393.017 60.836C394.604 61.1533 395.873 61.516 396.825 61.924C397.233 62.06 397.505 62.2413 397.641 62.468C397.777 62.6493 397.845 62.9213 397.845 63.284V69.744C397.845 69.88 397.732 69.9933 397.505 70.084C397.278 70.1293 397.12 70.084 397.029 69.948C396.168 68.1347 394.966 66.344 393.425 64.576C391.884 62.808 389.844 61.924 387.305 61.924C385.764 61.924 384.608 62.332 383.837 63.148C383.066 63.9187 382.681 64.9387 382.681 66.208Z" fill="white"/>
<path d="M101 116L228 116" stroke="white"/>
<path d="M250 111L256 116L250 121L244 116L250 111Z" fill="#8B1A1A"/>
<path d="M272 116H402" stroke="white"/>
<path d="M328.333 136L347.333 192.6L360 305.8V419L290.333 381.267L284 293.222V136H328.333Z" fill="white"/>
<path d="M236.238 172.699L250.5 160.133L264.762 172.699L259.576 197.832H241.424L236.238 172.699Z" fill="#8B1A1A"/>
<path d="M241.424 197.832H259.576L266.058 317.212L250.5 342.345L234.942 317.212L241.424 197.832Z" fill="#8B1A1A"/>
<path d="M234.942 317.212H266.058L250.5 354.912L234.942 317.212Z" fill="#8B1A1A"/>
<path d="M171.413 135L151.965 191.549L139 304.646V417.743L210.308 380.044L216.791 292.08V135H171.413Z" fill="white"/>
<path d="M168 223H195L181.5 216L168 223Z" fill="#8B1A1A"/>
<path opacity="0.5" d="M201.233 222.965H162.337V226.735H201.233V222.965Z" fill="#8FA8C0"/>
<path d="M172 434L331 434" stroke="#8FA8C0"/>
<g filter="url(#filter0_d_4_4)">
<path d="M170.826 431C170.791 431 170.774 430.948 170.774 430.844C170.774 430.74 170.791 430.688 170.826 430.688C171.294 430.688 171.649 430.645 171.892 430.558C172.152 430.471 172.342 430.298 172.464 430.038C172.585 429.778 172.689 429.397 172.776 428.894L174.908 416.856C175.046 416.111 175.029 415.625 174.856 415.4C174.7 415.175 174.292 415.062 173.634 415.062C173.582 415.062 173.556 415.01 173.556 414.906C173.556 414.802 173.582 414.75 173.634 414.75H183.852C183.99 414.75 184.042 414.828 184.008 414.984C183.956 415.313 183.895 415.703 183.826 416.154C183.756 416.605 183.687 417.038 183.618 417.454C183.548 417.87 183.496 418.208 183.462 418.468C183.444 418.537 183.384 418.563 183.28 418.546C183.193 418.511 183.15 418.477 183.15 418.442C183.08 417.471 182.742 416.709 182.136 416.154C181.529 415.582 180.74 415.296 179.77 415.296H179.328C178.842 415.296 178.478 415.339 178.236 415.426C177.993 415.495 177.82 415.643 177.716 415.868C177.629 416.093 177.542 416.431 177.456 416.882L175.35 428.79C175.263 429.31 175.263 429.709 175.35 429.986C175.436 430.246 175.653 430.428 176 430.532C176.346 430.636 176.858 430.688 177.534 430.688C177.568 430.688 177.586 430.74 177.586 430.844C177.586 430.948 177.568 431 177.534 431C177.204 431 176.728 430.991 176.104 430.974C175.48 430.957 174.665 430.948 173.66 430.948C173.122 430.948 172.611 430.957 172.126 430.974C171.64 430.991 171.207 431 170.826 431ZM181.018 425.514C181 425.583 180.94 425.618 180.836 425.618C180.732 425.601 180.688 425.557 180.706 425.488C180.844 424.743 180.723 424.179 180.342 423.798C179.978 423.417 179.423 423.226 178.678 423.226H175.22L175.298 422.498H178.86C179.64 422.498 180.246 422.342 180.68 422.03C181.113 421.718 181.408 421.207 181.564 420.496C181.581 420.427 181.642 420.401 181.746 420.418C181.85 420.418 181.893 420.461 181.876 420.548C181.789 421.103 181.711 421.545 181.642 421.874C181.572 422.186 181.503 422.515 181.434 422.862C181.364 423.295 181.295 423.72 181.226 424.136C181.174 424.552 181.104 425.011 181.018 425.514ZM190.361 431.312C188.905 431.312 187.7 430.939 186.747 430.194C185.793 429.431 185.126 428.409 184.745 427.126C184.381 425.843 184.337 424.422 184.615 422.862C184.823 421.649 185.204 420.531 185.759 419.508C186.313 418.485 186.998 417.601 187.813 416.856C188.645 416.093 189.563 415.504 190.569 415.088C191.574 414.672 192.631 414.464 193.741 414.464C195.231 414.464 196.462 414.837 197.433 415.582C198.403 416.327 199.079 417.333 199.461 418.598C199.859 419.863 199.911 421.285 199.617 422.862C199.391 424.179 198.975 425.358 198.369 426.398C197.762 427.438 197.034 428.322 196.185 429.05C195.335 429.778 194.408 430.341 193.403 430.74C192.415 431.121 191.401 431.312 190.361 431.312ZM191.479 430.636C192.709 430.636 193.793 430.064 194.729 428.92C195.682 427.759 196.323 426.199 196.653 424.24C196.861 423.044 196.921 421.9 196.835 420.808C196.765 419.716 196.557 418.745 196.211 417.896C195.881 417.029 195.422 416.345 194.833 415.842C194.243 415.339 193.541 415.088 192.727 415.088C191.496 415.088 190.413 415.66 189.477 416.804C188.541 417.948 187.899 419.508 187.553 421.484C187.362 422.645 187.301 423.772 187.371 424.864C187.44 425.956 187.639 426.935 187.969 427.802C188.298 428.669 188.757 429.362 189.347 429.882C189.936 430.385 190.647 430.636 191.479 430.636ZM200.586 431C200.516 431 200.482 430.948 200.482 430.844C200.482 430.74 200.516 430.688 200.586 430.688C201.088 430.688 201.478 430.645 201.756 430.558C202.033 430.454 202.241 430.272 202.38 430.012C202.518 429.752 202.631 429.379 202.718 428.894L204.824 416.856C204.928 416.353 204.962 415.981 204.928 415.738C204.893 415.478 204.763 415.305 204.538 415.218C204.312 415.114 203.957 415.062 203.472 415.062C203.402 415.062 203.368 415.01 203.368 414.906C203.368 414.802 203.402 414.75 203.472 414.75C203.87 414.75 204.321 414.767 204.824 414.802C205.344 414.819 205.881 414.828 206.436 414.828C206.834 414.828 207.311 414.802 207.866 414.75C208.42 414.698 208.871 414.672 209.218 414.672C210.968 414.672 212.199 414.975 212.91 415.582C213.62 416.189 213.872 417.073 213.664 418.234C213.49 419.239 213.048 420.106 212.338 420.834C211.644 421.562 210.786 422.125 209.764 422.524C208.758 422.905 207.701 423.096 206.592 423.096C206.522 423.096 206.41 423.096 206.254 423.096C206.115 423.079 206.028 423.061 205.994 423.044L206.15 422.238C206.254 422.29 206.41 422.333 206.618 422.368C206.826 422.385 206.99 422.394 207.112 422.394C208.238 422.394 209.105 422.117 209.712 421.562C210.318 421.007 210.717 420.089 210.908 418.806C211.064 417.922 211.064 417.22 210.908 416.7C210.769 416.163 210.526 415.781 210.18 415.556C209.833 415.331 209.434 415.218 208.984 415.218C208.602 415.218 208.316 415.244 208.126 415.296C207.935 415.348 207.788 415.495 207.684 415.738C207.597 415.963 207.502 416.353 207.398 416.908L205.266 428.894C205.179 429.379 205.153 429.752 205.188 430.012C205.222 430.272 205.344 430.454 205.552 430.558C205.777 430.645 206.124 430.688 206.592 430.688C206.661 430.688 206.696 430.74 206.696 430.844C206.696 430.948 206.67 431 206.618 431C206.202 431 205.742 430.991 205.24 430.974C204.754 430.957 204.217 430.948 203.628 430.948C203.056 430.948 202.501 430.957 201.964 430.974C201.444 430.991 200.984 431 200.586 431ZM212.052 431C211.826 431 211.514 430.723 211.116 430.168C210.717 429.613 210.249 428.721 209.712 427.49C209.192 426.259 208.628 424.639 208.022 422.628L210.128 421.926C210.977 424.11 211.722 425.843 212.364 427.126C213.022 428.391 213.638 429.301 214.21 429.856C214.799 430.411 215.388 430.688 215.978 430.688C216.03 430.688 216.056 430.74 216.056 430.844C216.056 430.948 216.03 431 215.978 431C214.92 431 214.08 431 213.456 431C212.832 431 212.364 431 212.052 431ZM228.582 431C228.53 431 228.504 430.948 228.504 430.844C228.504 430.74 228.53 430.688 228.582 430.688C229.067 430.688 229.431 430.645 229.674 430.558C229.916 430.471 230.098 430.298 230.22 430.038C230.341 429.778 230.436 429.397 230.506 428.894L232.43 415.92L233.054 415.062L225.306 430.818C225.271 430.887 225.202 430.922 225.098 430.922C225.011 430.905 224.95 430.861 224.916 430.792L222.004 416.908C221.882 416.353 221.692 415.946 221.432 415.686C221.172 415.426 220.894 415.261 220.6 415.192C220.305 415.105 220.028 415.062 219.768 415.062C219.716 415.062 219.69 415.01 219.69 414.906C219.69 414.802 219.716 414.75 219.768 414.75C219.976 414.75 220.218 414.759 220.496 414.776C220.773 414.793 221.085 414.802 221.432 414.802C221.917 414.802 222.35 414.793 222.732 414.776C223.13 414.759 223.425 414.75 223.616 414.75C223.806 414.75 223.954 414.837 224.058 415.01C224.179 415.183 224.3 415.547 224.422 416.102L226.84 427.568L225.15 429.986L232.248 415.4C232.456 414.967 232.776 414.75 233.21 414.75C233.366 414.75 233.617 414.759 233.964 414.776C234.31 414.793 234.622 414.802 234.9 414.802C235.281 414.802 235.593 414.793 235.836 414.776C236.096 414.759 236.356 414.75 236.616 414.75C236.65 414.75 236.668 414.802 236.668 414.906C236.668 415.01 236.65 415.062 236.616 415.062C236.096 415.062 235.697 415.175 235.42 415.4C235.142 415.608 234.952 416.076 234.848 416.804L233.054 428.894C232.95 429.639 232.976 430.125 233.132 430.35C233.305 430.575 233.712 430.688 234.354 430.688C234.406 430.688 234.432 430.74 234.432 430.844C234.432 430.948 234.406 431 234.354 431C233.972 431 233.53 430.991 233.028 430.974C232.542 430.957 232.022 430.948 231.468 430.948C230.913 430.948 230.393 430.957 229.908 430.974C229.422 430.991 228.98 431 228.582 431ZM216.934 431C216.882 431 216.856 430.948 216.856 430.844C216.856 430.74 216.882 430.688 216.934 430.688C217.523 430.688 218.043 430.419 218.494 429.882C218.944 429.345 219.256 428.617 219.43 427.698L221.744 415.348L222.368 415.4L220.158 427.62C219.984 428.573 220.019 429.327 220.262 429.882C220.504 430.419 220.92 430.688 221.51 430.688C221.562 430.688 221.588 430.74 221.588 430.844C221.588 430.948 221.562 431 221.51 431C221.198 431 220.842 430.991 220.444 430.974C220.062 430.957 219.638 430.948 219.17 430.948C218.771 430.948 218.381 430.957 218 430.974C217.636 430.991 217.28 431 216.934 431ZM235.009 431C234.939 431 234.905 430.948 234.905 430.844C234.905 430.74 234.939 430.688 235.009 430.688C235.459 430.688 236.014 430.428 236.673 429.908C237.331 429.388 237.964 428.573 238.571 427.464L245.825 414.516C245.859 414.447 245.937 414.421 246.059 414.438C246.197 414.455 246.275 414.49 246.293 414.542L249.127 428.816C249.213 429.284 249.3 429.657 249.387 429.934C249.473 430.211 249.621 430.411 249.829 430.532C250.037 430.636 250.357 430.688 250.791 430.688C250.86 430.688 250.895 430.74 250.895 430.844C250.895 430.948 250.86 431 250.791 431C250.34 431 249.881 430.983 249.413 430.948C248.962 430.913 248.459 430.896 247.905 430.896C247.367 430.896 246.882 430.913 246.449 430.948C246.033 430.983 245.599 431 245.149 431C245.079 431 245.045 430.948 245.045 430.844C245.045 430.74 245.079 430.688 245.149 430.688C245.807 430.688 246.232 430.558 246.423 430.298C246.631 430.038 246.657 429.544 246.501 428.816L244.291 417.87L245.747 415.868L239.273 427.646C238.874 428.357 238.649 428.937 238.597 429.388C238.562 429.839 238.709 430.168 239.039 430.376C239.368 430.584 239.888 430.688 240.599 430.688C240.668 430.688 240.703 430.74 240.703 430.844C240.703 430.948 240.659 431 240.573 431C240.174 431 239.68 430.983 239.091 430.948C238.519 430.913 237.955 430.896 237.401 430.896C236.898 430.896 236.482 430.913 236.153 430.948C235.841 430.983 235.459 431 235.009 431ZM240.339 425.046L240.729 424.318H246.423L246.475 425.046H240.339ZM251.999 431C251.964 431 251.947 430.948 251.947 430.844C251.947 430.74 251.964 430.688 251.999 430.688C252.467 430.688 252.822 430.645 253.065 430.558C253.307 430.471 253.489 430.298 253.611 430.038C253.732 429.778 253.836 429.397 253.923 428.894L256.055 416.856C256.193 416.111 256.176 415.625 256.003 415.4C255.829 415.175 255.413 415.062 254.755 415.062C254.72 415.062 254.703 415.01 254.703 414.906C254.703 414.802 254.72 414.75 254.755 414.75C255.153 414.75 255.587 414.767 256.055 414.802C256.54 414.819 257.051 414.828 257.589 414.828C258.143 414.828 258.672 414.819 259.175 414.802C259.695 414.767 260.145 414.75 260.527 414.75C260.561 414.75 260.579 414.802 260.579 414.906C260.579 415.01 260.561 415.062 260.527 415.062C260.059 415.062 259.703 415.114 259.461 415.218C259.218 415.305 259.036 415.478 258.915 415.738C258.793 415.998 258.689 416.379 258.603 416.882L256.497 428.79C256.375 429.483 256.375 429.934 256.497 430.142C256.635 430.35 256.947 430.454 257.433 430.454H258.109C259.391 430.454 260.518 430.142 261.489 429.518C262.459 428.877 263.335 427.889 264.115 426.554C264.149 426.519 264.21 426.511 264.297 426.528C264.383 426.545 264.418 426.58 264.401 426.632C264.262 427.169 264.097 427.811 263.907 428.556C263.733 429.301 263.595 429.986 263.491 430.61C263.439 430.87 263.3 431 263.075 431H251.999ZM276.718 430.974L273.312 416.908C273.138 416.232 272.965 415.755 272.792 415.478C272.636 415.201 272.384 415.062 272.038 415.062C271.986 415.062 271.96 415.01 271.96 414.906C271.96 414.802 271.986 414.75 272.038 414.75C272.367 414.75 272.722 414.767 273.104 414.802C273.502 414.819 273.866 414.828 274.196 414.828C274.646 414.828 275.028 414.819 275.34 414.802C275.652 414.767 275.938 414.75 276.198 414.75C276.267 414.75 276.302 414.802 276.302 414.906C276.302 415.01 276.267 415.062 276.198 415.062C275.92 415.062 275.756 415.149 275.704 415.322C275.652 415.495 275.712 415.937 275.886 416.648L278.616 428.062L276.9 430.61L283.426 417.766C283.807 417.021 283.928 416.388 283.79 415.868C283.651 415.331 283.261 415.062 282.62 415.062C282.568 415.062 282.542 415.01 282.542 414.906C282.542 414.802 282.568 414.75 282.62 414.75C283.018 414.75 283.4 414.767 283.764 414.802C284.128 414.819 284.604 414.828 285.194 414.828C285.662 414.828 286.052 414.819 286.364 414.802C286.676 414.767 287.048 414.75 287.482 414.75C287.534 414.75 287.56 414.802 287.56 414.906C287.56 415.01 287.534 415.062 287.482 415.062C287.152 415.062 286.814 415.123 286.468 415.244C286.138 415.365 285.792 415.625 285.428 416.024C285.081 416.405 284.691 417.012 284.258 417.844L277.42 430.974C277.368 431.061 277.238 431.095 277.03 431.078C276.839 431.078 276.735 431.043 276.718 430.974ZM270.634 430.974L267.228 416.908C267.054 416.232 266.855 415.755 266.63 415.478C266.422 415.201 266.092 415.062 265.642 415.062C265.59 415.062 265.564 415.01 265.564 414.906C265.564 414.802 265.59 414.75 265.642 414.75C266.023 414.75 266.43 414.767 266.864 414.802C267.314 414.819 267.73 414.828 268.112 414.828C268.701 414.828 269.195 414.819 269.594 414.802C270.01 414.767 270.382 414.75 270.712 414.75C270.781 414.75 270.816 414.802 270.816 414.906C270.816 415.01 270.781 415.062 270.712 415.062C270.417 415.062 270.157 415.175 269.932 415.4C269.706 415.625 269.663 416.041 269.802 416.648L272.558 428.062L270.816 430.61L275.47 421.484L275.886 422.186L271.336 430.974C271.284 431.061 271.154 431.095 270.946 431.078C270.755 431.078 270.651 431.043 270.634 430.974ZM276.354 422.186L275.912 421.484L277.81 417.766C278.278 416.847 278.503 416.171 278.486 415.738C278.468 415.287 278.2 415.062 277.68 415.062C277.645 415.062 277.628 415.01 277.628 414.906C277.628 414.802 277.645 414.75 277.68 414.75C277.974 414.75 278.252 414.767 278.512 414.802C278.789 414.819 279.144 414.828 279.578 414.828C279.976 414.828 280.297 414.819 280.54 414.802C280.782 414.767 281.086 414.75 281.45 414.75C281.519 414.75 281.554 414.802 281.554 414.906C281.554 415.01 281.519 415.062 281.45 415.062C281.155 415.062 280.869 415.123 280.592 415.244C280.332 415.365 280.046 415.625 279.734 416.024C279.422 416.423 279.049 417.029 278.616 417.844L276.354 422.186ZM286.026 431C285.974 431 285.948 430.948 285.948 430.844C285.948 430.74 285.974 430.688 286.026 430.688C286.494 430.688 286.849 430.645 287.092 430.558C287.335 430.471 287.517 430.298 287.638 430.038C287.759 429.778 287.863 429.397 287.95 428.894L290.056 416.856C290.195 416.111 290.177 415.625 290.004 415.4C289.848 415.175 289.441 415.062 288.782 415.062C288.747 415.062 288.73 415.01 288.73 414.906C288.73 414.802 288.747 414.75 288.782 414.75H299C299.139 414.75 299.191 414.828 299.156 414.984C299.104 415.313 299.043 415.703 298.974 416.154C298.905 416.605 298.835 417.038 298.766 417.454C298.714 417.87 298.662 418.208 298.61 418.468C298.593 418.537 298.532 418.563 298.428 418.546C298.341 418.511 298.298 418.477 298.298 418.442C298.229 417.471 297.891 416.709 297.284 416.154C296.677 415.582 295.897 415.296 294.944 415.296H294.476C293.991 415.296 293.627 415.339 293.384 415.426C293.159 415.495 292.994 415.643 292.89 415.868C292.803 416.093 292.717 416.431 292.63 416.882L290.524 428.79C290.403 429.483 290.42 429.934 290.576 430.142C290.732 430.35 291.131 430.454 291.772 430.454H292.448C293.471 430.454 294.459 430.133 295.412 429.492C296.383 428.833 297.189 427.958 297.83 426.866C297.865 426.814 297.925 426.805 298.012 426.84C298.116 426.857 298.151 426.883 298.116 426.918C297.96 427.421 297.804 428.019 297.648 428.712C297.492 429.388 297.353 430.021 297.232 430.61C297.18 430.87 297.041 431 296.816 431H286.026ZM296.79 425.228C296.773 425.297 296.712 425.332 296.608 425.332C296.504 425.315 296.461 425.271 296.478 425.202C296.617 424.439 296.495 423.867 296.114 423.486C295.75 423.105 295.195 422.914 294.45 422.914H290.368L290.472 422.186H294.632C295.412 422.186 296.019 422.039 296.452 421.744C296.885 421.432 297.18 420.921 297.336 420.21C297.353 420.123 297.414 420.089 297.518 420.106C297.622 420.106 297.665 420.149 297.648 420.236C297.561 420.791 297.483 421.233 297.414 421.562C297.345 421.874 297.275 422.203 297.206 422.55C297.137 422.983 297.067 423.417 296.998 423.85C296.946 424.266 296.877 424.725 296.79 425.228ZM298.434 431C298.365 431 298.33 430.948 298.33 430.844C298.33 430.74 298.365 430.688 298.434 430.688C298.885 430.688 299.44 430.428 300.098 429.908C300.757 429.388 301.39 428.573 301.996 427.464L309.25 414.516C309.285 414.447 309.363 414.421 309.484 414.438C309.623 414.455 309.701 414.49 309.718 414.542L312.552 428.816C312.639 429.284 312.726 429.657 312.812 429.934C312.899 430.211 313.046 430.411 313.254 430.532C313.462 430.636 313.783 430.688 314.216 430.688C314.286 430.688 314.32 430.74 314.32 430.844C314.32 430.948 314.286 431 314.216 431C313.766 431 313.306 430.983 312.838 430.948C312.388 430.913 311.885 430.896 311.33 430.896C310.793 430.896 310.308 430.913 309.874 430.948C309.458 430.983 309.025 431 308.574 431C308.505 431 308.47 430.948 308.47 430.844C308.47 430.74 308.505 430.688 308.574 430.688C309.233 430.688 309.658 430.558 309.848 430.298C310.056 430.038 310.082 429.544 309.926 428.816L307.716 417.87L309.172 415.868L302.698 427.646C302.3 428.357 302.074 428.937 302.022 429.388C301.988 429.839 302.135 430.168 302.464 430.376C302.794 430.584 303.314 430.688 304.024 430.688C304.094 430.688 304.128 430.74 304.128 430.844C304.128 430.948 304.085 431 303.998 431C303.6 431 303.106 430.983 302.516 430.948C301.944 430.913 301.381 430.896 300.826 430.896C300.324 430.896 299.908 430.913 299.578 430.948C299.266 430.983 298.885 431 298.434 431ZM303.764 425.046L304.154 424.318H309.848L309.9 425.046H303.764ZM315.555 431C315.485 431 315.451 430.948 315.451 430.844C315.451 430.74 315.485 430.688 315.555 430.688C316.057 430.688 316.447 430.645 316.725 430.558C317.002 430.454 317.21 430.272 317.349 430.012C317.487 429.752 317.6 429.379 317.687 428.894L319.793 416.856C319.897 416.353 319.931 415.981 319.897 415.738C319.862 415.478 319.732 415.305 319.507 415.218C319.281 415.114 318.926 415.062 318.441 415.062C318.371 415.062 318.337 415.01 318.337 414.906C318.337 414.802 318.371 414.75 318.441 414.75C318.839 414.75 319.29 414.767 319.793 414.802C320.313 414.819 320.85 414.828 321.405 414.828C321.803 414.828 322.28 414.802 322.835 414.75C323.389 414.698 323.84 414.672 324.187 414.672C325.937 414.672 327.168 414.975 327.879 415.582C328.589 416.189 328.841 417.073 328.633 418.234C328.459 419.239 328.017 420.106 327.307 420.834C326.613 421.562 325.755 422.125 324.733 422.524C323.727 422.905 322.67 423.096 321.561 423.096C321.491 423.096 321.379 423.096 321.223 423.096C321.084 423.079 320.997 423.061 320.963 423.044L321.119 422.238C321.223 422.29 321.379 422.333 321.587 422.368C321.795 422.385 321.959 422.394 322.081 422.394C323.207 422.394 324.074 422.117 324.681 421.562C325.287 421.007 325.686 420.089 325.877 418.806C326.033 417.922 326.033 417.22 325.877 416.7C325.738 416.163 325.495 415.781 325.149 415.556C324.802 415.331 324.403 415.218 323.953 415.218C323.571 415.218 323.285 415.244 323.095 415.296C322.904 415.348 322.757 415.495 322.653 415.738C322.566 415.963 322.471 416.353 322.367 416.908L320.235 428.894C320.148 429.379 320.122 429.752 320.157 430.012C320.191 430.272 320.313 430.454 320.521 430.558C320.746 430.645 321.093 430.688 321.561 430.688C321.63 430.688 321.665 430.74 321.665 430.844C321.665 430.948 321.639 431 321.587 431C321.171 431 320.711 430.991 320.209 430.974C319.723 430.957 319.186 430.948 318.597 430.948C318.025 430.948 317.47 430.957 316.933 430.974C316.413 430.991 315.953 431 315.555 431ZM327.021 431C326.795 431 326.483 430.723 326.085 430.168C325.686 429.613 325.218 428.721 324.681 427.49C324.161 426.259 323.597 424.639 322.991 422.628L325.097 421.926C325.946 424.11 326.691 425.843 327.333 427.126C327.991 428.391 328.607 429.301 329.179 429.856C329.768 430.411 330.357 430.688 330.947 430.688C330.999 430.688 331.025 430.74 331.025 430.844C331.025 430.948 330.999 431 330.947 431C329.889 431 329.049 431 328.425 431C327.801 431 327.333 431 327.021 431Z" fill="#8FA8C0"/>
</g>
<defs>
<filter id="filter0_d_4_4" x="160.774" y="414.412" width="180.251" height="36.9" filterUnits="userSpaceOnUse" color-interpolation-filters="sRGB">
<feFlood flood-opacity="0" result="BackgroundImageFix"/>
<feColorMatrix in="SourceAlpha" type="matrix" values="0 0 0 0 0 0 0 0 0 0 0 0 0 0 0 0 0 0 127 0" result="hardAlpha"/>
<feOffset dy="10"/>
<feGaussianBlur stdDeviation="5"/>
<feComposite in2="hardAlpha" operator="out"/>
<feColorMatrix type="matrix" values="0 0 0 0 0 0 0 0 0 0 0 0 0 0 0 0 0 0 0.25 0"/>
<feBlend mode="normal" in2="BackgroundImageFix" result="effect1_dropShadow_4_4"/>
<feBlend mode="normal" in="SourceGraphic" in2="effect1_dropShadow_4_4" result="shape"/>
</filter>
</defs>
</svg>
